<?xml version="1.0" standalone="no"?>
<!DOCTYPE svg PUBLIC "-//W3C//DTD SVG 20010904//EN"
 "http://www.w3.org/TR/2001/REC-SVG-20010904/DTD/svg10.dtd">
<svg version="1.0" xmlns="http://www.w3.org/2000/svg"
 width="547.000000pt" height="547.000000pt" viewBox="0 0 547.000000 547.000000"
 preserveAspectRatio="xMidYMid meet">
<metadata>
Created by potrace 1.11, written by Peter Selinger 2001-2013
</metadata>
<g transform="translate(0.000000,547.000000) scale(0.100000,-0.100000)"
fill="#000000" stroke="none">
<path d="M2731 4719 c-250 -47 -438 -215 -642 -573 -24 -42 -45 -76 -48 -76
-4 0 -21 51 -39 113 -113 386 -300 545 -626 532 -284 -12 -501 -135 -663 -378
-151 -226 -294 -649 -358 -1062 -33 -209 -40 -314 -40 -585 0 -222 5 -331 21
-460 3 -25 7 -58 9 -75 10 -81 27 -195 35 -235 5 -25 12 -56 14 -70 4 -22 30
-146 41 -190 41 -177 103 -360 178 -532 91 -206 125 -261 178 -289 48 -24 80
-24 109 -1 l23 19 -18 74 c-10 41 -60 178 -110 304 -114 284 -160 439 -189
640 -4 23 -8 50 -10 62 -3 12 -8 53 -11 90 -4 37 -9 76 -10 85 -26 137 -26
811 -1 977 2 14 7 53 11 86 3 33 15 114 26 180 11 66 22 134 25 150 7 42 69
278 92 350 113 347 263 532 495 610 251 84 463 -40 556 -325 28 -84 67 -283
76 -385 4 -44 9 -91 11 -105 5 -31 4 -361 -1 -415 -12 -146 -16 -185 -21 -224
-6 -43 -8 -72 -19 -186 -3 -33 -8 -76 -10 -95 -3 -19 -7 -60 -9 -91 -3 -30 -7
-75 -10 -100 -3 -24 -8 -70 -11 -102 -3 -32 -7 -77 -10 -100 -2 -23 -7 -73
-10 -112 -3 -38 -7 -88 -9 -110 -2 -22 -7 -80 -11 -130 -4 -49 -8 -103 -10
-120 -3 -27 -6 -63 -21 -255 -18 -246 1 -565 41 -679 32 -91 88 -151 142 -151
26 0 79 42 97 79 34 66 62 259 72 496 5 120 4 667 -1 830 -5 168 -6 658 0 755
4 83 14 199 20 245 2 17 7 53 10 80 58 483 199 883 378 1073 103 108 199 153
332 152 88 0 123 -7 180 -35 134 -65 237 -241 269 -460 4 -23 9 -52 11 -65 24
-120 24 -616 0 -795 -2 -16 -7 -61 -10 -98 -4 -37 -8 -76 -10 -85 -1 -9 -6
-49 -9 -87 -4 -39 -8 -80 -10 -90 -2 -11 -7 -54 -11 -95 -4 -41 -9 -82 -10
-91 -3 -15 -6 -37 -20 -154 -2 -22 -7 -60 -10 -85 -3 -25 -7 -65 -10 -90 -3
-25 -7 -63 -9 -85 -5 -41 -21 -204 -31 -310 -14 -145 -20 -536 -10 -630 24
-237 42 -319 81 -378 27 -41 78 -77 109 -77 55 0 134 97 149 183 3 15 7 35 10
45 12 44 19 148 17 262 -5 257 5 1666 14 1815 10 184 24 322 41 410 3 11 7 36
10 55 3 19 7 43 10 52 3 9 6 25 8 35 34 172 119 388 201 513 106 159 246 250
386 250 65 0 182 -45 247 -95 45 -33 128 -116 157 -155 140 -189 261 -585 319
-1040 6 -45 10 -80 26 -265 8 -101 6 -658 -3 -705 -3 -14 -8 -59 -12 -100 -12
-145 -48 -361 -86 -510 -17 -63 -72 -221 -124 -350 -80 -201 -116 -298 -120
-320 -1 -3 -4 -22 -9 -44 -9 -46 12 -76 55 -76 88 0 136 61 252 320 60 133
134 353 163 482 2 10 6 26 8 35 22 88 59 272 71 358 25 172 27 188 42 350 15
164 8 644 -12 767 -2 13 -6 46 -10 73 -8 73 -24 161 -41 240 -9 39 -18 81 -20
95 -10 57 -77 285 -113 388 -99 279 -204 458 -346 590 -235 221 -590 250 -830
69 -97 -73 -155 -150 -235 -310 l-68 -138 -17 78 c-47 218 -89 308 -189 408
-77 76 -170 131 -269 160 -67 19 -191 26 -256 14z"/>
</g>
</svg>
